# xmcd
#
# Track frame offsets:
#	150
#	16902
#	30234
#	47423
#	62279
#	78837
#	95583
#	114493
#	129918
#	147808
#	163096
#	180198
#
# Disc length: 2631 seconds
#
# Revision: 1
# Processed by: cddbd v1.5.2PL0 Copyright (c) Steve Scherf et al.
# Submitted via: audiograbber 1.82.01
#
DISCID=7f0a450c
DTITLE=VON - Ein fot innafor
DYEAR=2013
DGENRE=Country
TTITLE0=Planlaus
TTITLE1=Ein fot innafor
TTITLE2=Engel som ho
TTITLE3=Ei viku te
TTITLE4=Eit etterlengta møte
TTITLE5=Deinn som du æ
TTITLE6=Furukeill'n
TTITLE7=Dagen derpå
TTITLE8=Rym, reis, struk
TTITLE9=Bygdadyruppdrett
TTITLE10=Breinne brue
TTITLE11=Stor skål
EXTD=
EXTT0=
EXTT1=
EXTT2=
EXTT3=
EXTT4=
EXTT5=
EXTT6=
EXTT7=
EXTT8=
EXTT9=
EXTT10=
EXTT11=
PLAYORDER=
